# File created by Blade
# Date/Time:  Wed Jan 21 16:27:40 2015
# Frame Rate: 120.000 fps
#------------------------------------------------------
:FULLY-SPECIFIED
:DEGREES
1432
root 18.995829 4.158204 -8.073126 -226.834770 -3.904476 -199.490354
Spine 61.398900 1.979093 -17.661940
Head -22.093674 8.553199 -9.077980
LeftShoulder 3.089615 -33.555171 0.812856
LeftArm 35.526571 30.093285 -39.998511
LeftForeArm 6.135221 0.000000 29.858941
LeftHand -2.289142 -0.000000 -9.947488
LeftHandThumb1 -26.253704 0.000000 33.147579
RightShoulder 4.188823 -16.054545 -7.305960
RightArm 8.741674 -6.907459 93.984349
RightForeArm -58.454960 -0.000000 63.089754
RightHand -18.191523 -0.000000 -31.232076
RightHandThumb1 -24.326973 -0.000000 -32.862282
LeftUpLeg -14.347367 -4.132083 52.580895
LeftLeg 38.786020 -0.000000 -0.000000
LeftFoot 16.970392 16.839732 5.691025
LeftToeBase 7.862913 -0.000000 -0.000000
RightUpLeg -50.854357 -32.245975 -42.199712
RightLeg 14.277744 -0.000000 -0.000000
RightFoot 30.971692 -28.642899 -10.587983
RightToeBase 7.627370 -0.000000 -0.000000
1433
root 18.994062 4.154918 -8.064774 -226.968410 -3.952497 -199.457779
Spine 61.311505 2.168934 -17.654505
Head -22.170750 8.340317 -9.471195
LeftShoulder 3.051279 -33.606883 0.807190
LeftArm 35.324053 30.010656 -39.519998
LeftForeArm 5.741301 -0.000000 29.623557
LeftHand -2.411156 0.000000 -10.420045
LeftHandThumb1 -26.253704 0.000000 33.147579
RightShoulder 4.113325 -16.195585 -7.203834
RightArm 8.920970 -7.328188 93.650157
RightForeArm -58.410643 -0.000000 62.978935
RightHand -18.803834 0.000000 -31.273845
RightHandThumb1 -24.326973 -0.000000 -32.862282
LeftUpLeg -14.355423 -4.111092 52.580812
LeftLeg 38.806695 -0.000000 -0.000000
LeftFoot 17.035701 16.837018 5.702428
LeftToeBase 7.112608 -0.000000 -0.000000
RightUpLeg -50.759775 -32.168330 -42.284975
RightLeg 14.398101 -0.000000 -0.000000
RightFoot 30.520657 -28.601521 -10.442296
RightToeBase 6.128207 -0.000000 -0.000000
1434
root 18.992409 4.151551 -8.055985 -227.138897 -4.005803 -199.415440
Spine 61.251581 2.340398 -17.679542
Head -22.196380 8.203810 -9.888549
LeftShoulder 2.984955 -33.752022 0.860373
LeftArm 35.047724 29.996709 -39.127972
LeftForeArm 5.216652 -0.000000 29.264509
LeftHand -2.378843 -0.000000 -10.684748
LeftHandThumb1 -26.253704 0.000000 33.147579
RightShoulder 4.185619 -16.207213 -7.201824
RightArm 8.923363 -7.552565 93.440115
RightForeArm -57.957765 -0.000000 62.918619
RightHand -18.878925 -0.000000 -31.140517
RightHandThumb1 -24.326973 -0.000000 -32.862282
LeftUpLeg -14.347776 -4.165251 52.575938
LeftLeg 38.817459 -0.000000 -0.000000
LeftFoot 17.060014 16.782644 5.697093
LeftToeBase 7.216686 -0.000000 -0.000000
RightUpLeg -50.639667 -32.082702 -42.378391
RightLeg 14.537182 -0.000000 -0.000000
RightFoot 30.018471 -28.570475 -10.348611
RightToeBase 4.947839 -0.000000 -0.000000
1435
root 18.987020 4.152702 -8.044201 -227.297868 -4.142104 -199.434699
Spine 61.202107 2.553067 -17.751200
Head -22.211802 7.971646 -10.332368
LeftShoulder 3.011408 -33.861574 0.890544
LeftArm 34.718428 29.805816 -38.840309
LeftForeArm 5.022228 0.000000 28.912771
LeftHand -2.344034 -0.000000 -11.113116
LeftHandThumb1 -26.253704 0.000000 33.147579
RightShoulder 4.118638 -16.280845 -7.106193
RightArm 9.002891 -7.705315 93.304463
RightForeArm -57.797292 -0.000000 62.826997
RightHand -19.089444 -0.000000 -31.089711
RightHandThumb1 -24.326973 -0.000000 -32.862282
LeftUpLeg -14.328501 -4.291825 52.445611
LeftLeg 38.785721 -0.000000 -0.000000
LeftFoot 17.072188 16.798683 5.626644
LeftToeBase 7.149734 -0.000000 -0.000000
RightUpLeg -50.559374 -32.073773 -42.514831
RightLeg 14.676239 -0.000000 -0.000000
RightFoot 29.519788 -28.519460 -10.263727
RightToeBase 3.574014 -0.000000 -0.000000
1436
root 18.983295 4.149989 -8.036746 -227.489499 -4.186458 -199.393977
Spine 61.173854 2.714518 -17.713790
Head -22.227263 7.744551 -10.916846
LeftShoulder 2.993482 -33.959507 0.841651
LeftArm 34.509241 29.755580 -38.298432
LeftForeArm 4.645237 -0.000000 28.604148
LeftHand -2.346565 -0.000000 -11.418891
LeftHandThumb1 -26.253704 0.000000 33.147579
RightShoulder 4.166526 -16.379837 -7.076948
RightArm 9.029356 -7.601854 93.294128
RightForeArm -57.812232 -0.000000 62.933171
RightHand -19.321681 0.000000 -30.642847
RightHandThumb1 -24.326973 -0.000000 -32.862282
LeftUpLeg -14.306041 -4.314720 52.446219
LeftLeg 38.809448 -0.000000 -0.000000
LeftFoot 17.134941 16.758700 5.590699
LeftToeBase 6.845453 -0.000000 -0.000000
RightUpLeg -50.515664 -32.070966 -42.489887
RightLeg 14.837089 -0.000000 -0.000000
RightFoot 28.941629 -28.535678 -10.129135
RightToeBase 3.194921 -0.000000 -0.000000
1437
root 18.982034 4.149063 -8.026308 -227.705207 -4.216515 -199.344821
Spine 61.197100 2.886483 -17.656779
Head -22.272776 7.548843 -11.545724
LeftShoulder 2.965907 -34.065591 0.787991
LeftArm 34.332651 29.701593 -37.667104
LeftForeArm 4.402060 -0.000000 28.339123
LeftHand -2.239290 -0.000000 -11.847955
LeftHandThumb1 -26.253704 0.000000 33.147579
RightShoulder 4.269109 -16.440872 -7.113048
RightArm 9.010486 -7.437046 93.305544
RightForeArm -57.646948 -0.000000 63.023484
RightHand -19.232220 0.000000 -30.120033
RightHandThumb1 -24.326973 -0.000000 -32.862282
LeftUpLeg -14.243934 -4.402054 52.456336
LeftLeg 38.798860 -0.000000 -0.000000
LeftFoot 17.236104 16.723915 5.589601
LeftToeBase 6.691371 -0.000000 -0.000000
RightUpLeg -50.514819 -32.110853 -42.362827
RightLeg 15.054531 -0.000000 -0.000000
RightFoot 27.979583 -29.110393 -9.534819
RightToeBase 3.056480 -0.000000 -0.000000
